REM DIRINDEX 1\2,1\4,1\5,1\6,1\7,1\3\8,1\3\9,1\3\10
REM DIRNAME cjc113,folder01,folder02,folder03,folder04,folder05,folder06,folder07,folder08,folder09
TITLE ""
FILE "DB4500_5th_1A_15.mp3" MP3
  TRACK 01 AUDIO
    TITLE "8:cjc113_0611"
    INDEX 01 00:00:00
  TRACK 02 AUDIO
    TITLE "0:"
    INDEX 01 00:01:17
  TRACK 03 AUDIO
    TITLE "9:cjc113_0612"
    INDEX 01 00:01:40
  TRACK 04 AUDIO
    TITLE "0:"
    INDEX 01 00:02:49
  TRACK 05 AUDIO
    TITLE "10:cjc113_0613"
    INDEX 01 00:02:71
  TRACK 06 AUDIO
    TITLE "0:"
    INDEX 01 00:06:33
  TRACK 07 AUDIO
    TITLE "10:cjc113_0614"
    INDEX 01 00:07:56
  TRACK 08 AUDIO
    TITLE "0:"
    INDEX 01 00:10:51
  TRACK 09 AUDIO
    TITLE "8:cjc113_0615"
    INDEX 01 00:11:25
  TRACK 10 AUDIO
    TITLE "0:"
    INDEX 01 00:12:30
  TRACK 11 AUDIO
    TITLE "9:cjc113_0616"
    INDEX 01 00:12:54
  TRACK 12 AUDIO
    TITLE "0:"
    INDEX 01 00:14:00
  TRACK 13 AUDIO
    TITLE "10:cjc113_0617"
    INDEX 01 00:14:17
  TRACK 14 AUDIO
    TITLE "0:"
    INDEX 01 00:17:25
  TRACK 15 AUDIO
    TITLE "8:cjc113_0618"
    INDEX 01 00:17:72
  TRACK 16 AUDIO
    TITLE "0:"
    INDEX 01 00:19:16
  TRACK 17 AUDIO
    TITLE "9:cjc113_0619"
    INDEX 01 00:19:40
  TRACK 18 AUDIO
    TITLE "0:"
    INDEX 01 00:20:51
  TRACK 19 AUDIO
    TITLE "10:cjc113_0620"
    INDEX 01 00:21:00
  TRACK 20 AUDIO
    TITLE "0:"
    INDEX 01 00:24:69
  TRACK 21 AUDIO
    TITLE "8:cjc113_0621"
    INDEX 01 00:25:39
  TRACK 22 AUDIO
    TITLE "0:"
    INDEX 01 00:26:48
  TRACK 23 AUDIO
    TITLE "9:cjc113_0622"
    INDEX 01 00:26:71
  TRACK 24 AUDIO
    TITLE "0:"
    INDEX 01 00:28:19
  TRACK 25 AUDIO
    TITLE "10:cjc113_0623"
    INDEX 01 00:28:39
  TRACK 26 AUDIO
    TITLE "0:"
    INDEX 01 00:31:57
  TRACK 27 AUDIO
    TITLE "8:cjc113_0624"
    INDEX 01 00:32:33
  TRACK 28 AUDIO
    TITLE "0:"
    INDEX 01 00:33:54
  TRACK 29 AUDIO
    TITLE "9:cjc113_0625"
    INDEX 01 00:33:73
  TRACK 30 AUDIO
    TITLE "0:"
    INDEX 01 00:35:02
  TRACK 31 AUDIO
    TITLE "10:cjc113_0626"
    INDEX 01 00:35:27
  TRACK 32 AUDIO
    TITLE "0:"
    INDEX 01 00:39:00
  TRACK 33 AUDIO
    TITLE "8:cjc113_0627"
    INDEX 01 00:39:47
  TRACK 34 AUDIO
    TITLE "0:"
    INDEX 01 00:40:60
  TRACK 35 AUDIO
    TITLE "9:cjc113_0628"
    INDEX 01 00:41:06
  TRACK 36 AUDIO
    TITLE "0:"
    INDEX 01 00:42:23
  TRACK 37 AUDIO
    TITLE "10:cjc113_0629"
    INDEX 01 00:42:45
  TRACK 38 AUDIO
    TITLE "0:"
    INDEX 01 00:46:11
  TRACK 39 AUDIO
    TITLE "8:cjc113_0630"
    INDEX 01 00:46:60
  TRACK 40 AUDIO
    TITLE "0:"
    INDEX 01 00:48:02
  TRACK 41 AUDIO
    TITLE "9:cjc113_0631"
    INDEX 01 00:48:24
  TRACK 42 AUDIO
    TITLE "0:"
    INDEX 01 00:49:39
  TRACK 43 AUDIO
    TITLE "10:cjc113_0632"
    INDEX 01 00:49:63
  TRACK 44 AUDIO
    TITLE "0:"
    INDEX 01 00:53:53
  TRACK 45 AUDIO
    TITLE "8:cjc113_0633"
    INDEX 01 00:54:23
  TRACK 46 AUDIO
    TITLE "0:"
    INDEX 01 00:55:26
  TRACK 47 AUDIO
    TITLE "9:cjc113_0634"
    INDEX 01 00:55:50
  TRACK 48 AUDIO
    TITLE "0:"
    INDEX 01 00:58:67
  TRACK 49 AUDIO
    TITLE "10:cjc113_0635"
    INDEX 01 00:59:16
  TRACK 50 AUDIO
    TITLE "0:"
    INDEX 01 01:01:72
  TRACK 51 AUDIO
    TITLE "10:cjc113_0636"
    INDEX 01 01:02:26
  TRACK 52 AUDIO
    TITLE "0:"
    INDEX 01 01:05:66
  TRACK 53 AUDIO
    TITLE "8:cjc113_0637"
    INDEX 01 01:06:42
  TRACK 54 AUDIO
    TITLE "0:"
    INDEX 01 01:07:39
  TRACK 55 AUDIO
    TITLE "9:cjc113_0638"
    INDEX 01 01:07:63
  TRACK 56 AUDIO
    TITLE "0:"
    INDEX 01 01:10:63
  TRACK 57 AUDIO
    TITLE "10:cjc113_0639"
    INDEX 01 01:11:11
  TRACK 58 AUDIO
    TITLE "0:"
    INDEX 01 01:14:74
  TRACK 59 AUDIO
    TITLE "8:cjc113_0640"
    INDEX 01 01:15:46
  TRACK 60 AUDIO
    TITLE "0:"
    INDEX 01 01:16:48
  TRACK 61 AUDIO
    TITLE "9:cjc113_0641"
    INDEX 01 01:16:71
  TRACK 62 AUDIO
    TITLE "0:"
    INDEX 01 01:20:06
  TRACK 63 AUDIO
    TITLE "10:cjc113_0642"
    INDEX 01 01:20:30
  TRACK 64 AUDIO
    TITLE "0:"
    INDEX 01 01:23:03
